<?xml version="1.0" standalone="no"?>
<!DOCTYPE svg PUBLIC "-//W3C//DTD SVG 20010904//EN"
 "http://www.w3.org/TR/2001/REC-SVG-20010904/DTD/svg10.dtd">
<svg version="1.0" xmlns="http://www.w3.org/2000/svg"
 width="764.000000pt" height="764.000000pt" viewBox="0 0 764.000000 764.000000"
 preserveAspectRatio="xMidYMid meet">
<metadata>
Created by potrace 1.11, written by Peter Selinger 2001-2013
</metadata>
<g transform="translate(0.000000,764.000000) scale(0.100000,-0.100000)"
fill="#000000" stroke="none">
<path d="M0 3820 l0 -3820 3820 0 3820 0 0 3820 0 3820 -3820 0 -3820 0 0
-3820z m3920 2312 c401 -681 1473 -2487 1486 -2507 12 -16 14 -155 14 -813 0
-687 -3 -871 -25 -1370 -14 -317 -26 -592 -28 -610 -2 -33 -6 -30 -801 627
l-799 661 -41 -33 c-125 -101 -666 -517 -673 -517 -4 0 -192 393 -418 873
l-410 872 -3 225 -3 225 226 1045 c124 575 250 1164 281 1310 32 146 60 268
64 273 3 4 95 -90 204 -208 109 -118 202 -213 206 -212 5 1 38 -29 73 -68 l64
-70 162 323 c153 306 162 322 189 322 25 -1 42 -27 232 -348z"/>
<path d="M3559 6008 l-133 -266 39 -44 c21 -23 64 -71 96 -105 l57 -61 137
191 c76 106 138 196 138 202 0 5 -46 86 -101 179 l-100 169 -133 -265z"/>
<path d="M2857 6130 c-3 -8 -13 -49 -21 -90 -9 -41 -104 -482 -212 -979 -107
-496 -194 -904 -192 -906 2 -2 162 378 355 843 l353 845 -55 61 c-147 166
-223 241 -228 226z"/>
<path d="M3823 5605 c-57 -79 -105 -150 -108 -157 -4 -9 24 -48 72 -101 77
-84 78 -85 98 -67 20 18 26 12 525 -556 278 -316 516 -587 529 -602 23 -26 24
-27 8 -1 -82 137 -1002 1607 -1011 1616 -8 8 -36 -24 -113 -132z"/>
<path d="M3223 5724 c-3 -11 -57 -140 -119 -289 -62 -148 -112 -270 -111 -272
2 -1 64 121 139 271 134 268 136 274 118 291 -19 17 -20 17 -27 -1z"/>
<path d="M3117 5125 c-130 -261 -237 -479 -237 -483 0 -8 69 -36 75 -30 22 22
575 803 573 809 -5 13 -159 179 -166 179 -4 0 -114 -214 -245 -475z"/>
<path d="M3581 5266 c-49 -65 -51 -58 41 -138 l59 -51 44 44 44 44 -72 79 -73
79 -43 -57z"/>
<path d="M3406 5003 c-340 -465 -328 -446 -303 -460 12 -7 27 -12 33 -13 10 0
267 256 397 396 l57 61 -60 52 -60 52 -64 -88z"/>
<path d="M3817 5032 l-38 -39 298 -259 c164 -142 334 -290 378 -328 46 -41 65
-53 44 -30 -111 121 -577 625 -608 657 l-37 37 -37 -38z"/>
<path d="M2821 4450 c-18 -33 -30 -60 -28 -60 5 0 77 105 77 113 0 22 -21 -1
-49 -53z"/>
<path d="M4970 3369 c-91 -10 -574 -61 -1074 -113 -500 -53 -910 -97 -912 -99
-5 -5 991 -527 1004 -527 8 0 1145 735 1171 756 5 5 14 6 -189 -17z"/>
<path d="M4791 2851 c-303 -264 -555 -482 -560 -486 -5 -3 -30 4 -54 16 l-45
22 -47 -39 -47 -38 23 -16 c13 -8 287 -193 609 -411 322 -218 587 -395 589
-393 2 2 10 131 17 286 8 156 27 564 44 907 17 343 29 626 26 628 -2 2 -251
-212 -555 -476z"/>
<path d="M2410 3238 c0 -16 611 -1243 618 -1241 19 4 487 314 487 322 0 5
-241 208 -535 451 -294 243 -543 449 -552 458 -10 8 -18 13 -18 10z"/>
<path d="M3260 2858 c0 -3 119 -85 265 -183 l264 -179 36 19 c19 11 35 22 35
25 0 4 -84 51 -187 105 -104 54 -239 125 -300 157 -62 33 -113 58 -113 56z"/>
<path d="M3335 2642 c11 -11 83 -72 159 -136 115 -94 143 -113 158 -105 10 5
18 13 18 17 0 4 -80 61 -178 126 -97 65 -168 110 -157 98z"/>
<path d="M3947 2444 c-21 -14 -35 -29 -32 -35 7 -11 27 -1 70 35 40 34 12 34
-38 0z"/>
<path d="M3760 2322 c-20 -16 -20 -19 -7 -31 13 -10 20 -9 41 4 30 20 33 30
10 39 -21 8 -19 9 -44 -12z"/>
<path d="M3901 2222 l-32 -27 358 -296 c197 -164 508 -421 692 -574 183 -152
334 -275 336 -273 1 2 5 68 8 148 l6 145 -72 49 c-40 26 -299 201 -577 389
-278 187 -546 369 -596 403 l-91 63 -32 -27z"/>
<path d="M3340 2049 c-151 -99 -278 -183 -283 -188 -4 -4 3 -30 15 -58 l23
-51 287 223 c271 210 286 224 269 239 -10 9 -22 16 -27 16 -5 0 -133 -82 -284
-181z"/>
</g>
</svg>
